<?xml version="1.0" encoding="UTF-8"?>
<!DOCTYPE svg PUBLIC "-//W3C//DTD SVG 1.1//EN" "http://www.w3.org/Graphics/SVG/1.1/DTD/svg11.dtd">
<!-- Creator: CorelDRAW 2020 (64 Bit) -->
<svg xmlns="http://www.w3.org/2000/svg" xml:space="preserve" width="18.901cm" height="13.0281cm" version="1.1" style="shape-rendering:geometricPrecision; text-rendering:geometricPrecision; image-rendering:optimizeQuality; fill-rule:evenodd; clip-rule:evenodd"
viewBox="0 0 18901.02 13028.12"
 xmlns:xlink="http://www.w3.org/1999/xlink"
 xmlns:xodm="http://www.corel.com/coreldraw/odm/2003">
 <defs>
  <style type="text/css">
   <![CDATA[
    .fil1 {fill:white}
    .fil0 {fill:white;fill-rule:nonzero}
   ]]>
  </style>
 </defs>
 <g id="Camada_x0020_1">
  <metadata id="CorelCorpID_0Corel-Layer"/>
  <g id="_1744378037488">
   <g>
    <path class="fil0" d="M2032.1 11685.09l0 -2313.78 -635.6 0 0 920.89 -760.89 0 0 -920.89 -635.61 0 0 2313.78 635.61 0 0 -861.48 760.89 0 0 861.48 635.6 0zm1977.71 -1785.67l0 -528.11 -1750.97 0 0 2313.78 1781.53 0 0 -528.11 -1145.92 0 0 -366.37 1011.47 0 0 -528.11 -1011.47 0 0 -363.08 1115.36 0zm904.82 1211.35l0 -1739.46 -635.6 0 0 2313.78 1534 0 0 -574.32 -898.4 0zm1084.96 -1739.46l0 2313.78 635.61 0 0 -623.83 336.14 0c553.1,0 870.9,-316.86 870.9,-868.08 0,-524.81 -317.8,-821.87 -870.9,-821.87l-971.75 0zm635.61 528.11l305.58 0c189.46,0 299.47,112.23 299.47,313.57 0,207.94 -110.01,320.16 -299.47,320.16l-305.58 0 0 -633.73zm3272.29 19.81l0 -547.92 -1882.37 0 0 547.92 620.33 0 0 1765.86 638.66 0 0 -1765.86 623.38 0zm1387.65 1765.86l721.17 0 -433.93 -755.86c232.25,-141.92 360.58,-392.78 360.58,-736.05 0,-524.81 -330.02,-821.87 -904.51,-821.87l-999.24 0 0 2313.78 635.6 0 0 -623.83 336.14 0 284.19 623.83zm-620.33 -1151.94l0 -633.73 363.64 0c189.46,0 299.47,112.23 299.47,313.57 0,207.94 -110.01,320.16 -299.47,320.16l-363.64 0zm3122.56 782.26l125.29 369.68 678.39 0 -883.13 -2313.78 -653.93 0 -913.69 2313.78 653.94 0 128.35 -369.68 864.78 0zm-168.07 -501.7l-519.48 0 262.8 -755.86 256.68 755.86zm2057.01 -1462.2c-663.11,0 -1152.04,498.4 -1152.04,1171.74 0,683.24 479.76,1191.55 1130.64,1191.55 323.92,0 675.33,-174.94 907.58,-445.6l-366.7 -422.48c-146.68,161.73 -345.3,267.35 -510.32,267.35 -290.29,0 -510.31,-257.45 -510.31,-597.42 0,-339.97 220.02,-594.12 510.31,-594.12 177.24,0 375.87,122.12 510.32,306.96l366.7 -468.7c-216.96,-250.85 -562.27,-409.28 -886.18,-409.28zm2453.8 2333.58l760.9 0 -825.07 -1373.08 776.17 -940.7 -733.39 0 -718.11 891.19 0 -891.19 -635.61 0 0 2313.78 635.61 0 0 -554.51 241.41 -290.46 498.09 844.97z"/>
    <path class="fil0" d="M3024.02 13024.62l86.81 0 -101.71 -163.74c60.25,-25.19 93.93,-80.47 93.93,-158.84 0,-106.35 -66.72,-167.23 -182.68,-167.23l-183.98 0 0 489.81 76.44 0 0 -147.64 107.54 0c7.13,0 14.25,0 20.73,-0.7l82.92 148.34zm-211.19 -221.81l0 -193.83 107.54 0c69.96,0 110.12,30.79 110.12,95.16 0,66.48 -40.16,98.67 -110.12,98.67l-107.54 0zm918.72 111.25l43.41 110.56 81.62 0 -198.23 -489.81 -78.38 0 -200.18 489.81 79.69 0 43.4 -110.56 228.67 0zm-29.14 -73.47l-171.03 0 85.51 -217.62 85.52 217.62zm597.4 -309.28c-98.47,0 -165.19,52.48 -165.19,136.45 0,174.23 244.88,113.35 244.88,222.51 0,37.79 -31.75,59.48 -84.86,59.48 -48.59,0 -106.9,-25.19 -153.54,-71.37l-33.04 71.37c46.64,46.18 114.02,77.67 185.28,77.67 99.76,0 171.02,-53.88 171.02,-141.35 0.64,-176.33 -244.22,-118.95 -244.22,-226.01 0,-32.89 29.14,-51.08 73.85,-51.08 34.33,0 83.56,13.3 132.8,45.48l31.74 -72.77c-42.11,-30.09 -99.76,-50.38 -158.72,-50.38zm797.59 77.67l0 -74.17 -363.42 0 0 74.17 143.17 0 0 415.64 76.44 0 0 -415.64 143.81 0zm587.05 415.64l86.8 0 -101.71 -163.74c60.26,-25.19 93.94,-80.47 93.94,-158.84 0,-106.35 -66.73,-167.23 -182.68,-167.23l-183.98 0 0 489.81 76.43 0 0 -147.64 107.55 0c7.12,0 14.24,0 20.72,-0.7l82.93 148.34zm-211.2 -221.81l0 -193.83 107.55 0c69.96,0 110.12,30.79 110.12,95.16 0,66.48 -40.16,98.67 -110.12,98.67l-107.55 0zm949.83 -193.83l0 -74.17 -323.91 0 0 489.81 331.68 0 0 -74.17 -255.24 0 0 -135.05 221.55 0 0 -74.17 -221.55 0 0 -132.25 247.47 0zm627.85 305.08l43.41 110.56 81.62 0 -198.23 -489.81 -78.38 0 -200.18 489.81 79.69 0 43.4 -110.56 228.67 0zm-29.14 -73.47l-171.03 0 85.51 -217.62 85.52 217.62zm927.8 184.03l0 -489.81 -90.06 0 -149 325.37 -149.64 -325.37 -90.69 0 0 489.81 71.91 0 0 -365.96 143.17 314.88 49.87 0 143.18 -314.88 0.63 365.96 70.63 0zm677.73 -415.64l0 -74.17 -323.9 0 0 489.81 331.68 0 0 -74.17 -255.25 0 0 -135.05 221.56 0 0 -74.17 -221.56 0 0 -132.25 247.47 0zm728.27 415.64l0 -489.81 -75.15 0 0 351.96 -242.93 -351.96 -75.14 0 0 489.81 76.44 0 0 -351.26 241.63 351.26 75.15 0zm663.5 -415.64l0 -74.17 -363.43 0 0 74.17 143.17 0 0 415.64 76.44 0 0 -415.64 143.82 0zm502.18 -76.27c-135.39,0 -240.34,106.36 -240.34,247 0,139.95 104.95,248.41 240.34,248.41 135.39,0 240.33,-108.46 240.33,-248.41 0,-139.94 -104.94,-247 -240.33,-247zm0.64 74.17c88.75,0 161.31,75.57 161.31,172.83 0,97.27 -72.56,174.24 -161.31,174.24 -88.74,0 -163.24,-76.97 -163.24,-174.24 0,-97.26 73.85,-172.83 163.24,-172.83zm1024.84 417.74l183.33 -489.81 -79.67 0 -141.22 398.15 -139.94 -398.15 -82.27 0 180.74 489.81 79.03 0zm802.77 -415.64l0 -74.17 -323.9 0 0 489.81 331.68 0 0 -74.17 -255.25 0 0 -135.05 221.56 0 0 -74.17 -221.56 0 0 -132.25 247.47 0zm411.49 415.64l0 -489.81 -76.44 0 0 489.81 76.44 0zm554.01 -491.91c-134.1,0 -238.4,107.06 -238.4,246.3 0,140.65 103.01,249.11 235.81,249.11 64.14,0 129.56,-31.49 175.56,-80.47l-45.35 -54.58c-34.34,35.69 -80.98,58.08 -126.33,58.08 -90.69,0 -161.95,-76.27 -161.95,-172.83 0,-96.57 71.26,-172.14 161.95,-172.14 46,0 93.29,23.79 126.33,62.28l44.7 -60.18c-44.05,-46.88 -108.19,-75.57 -172.32,-75.57zm870.14 2.1l-76.44 0 0 286.89c0,83.27 -45.99,132.25 -119.84,132.25 -74.5,0 -121.79,-49.68 -121.79,-132.25l0 -286.89 -76.45 0 0 286.89c0,128.05 75.15,206.42 197.59,206.42 122.44,0 196.93,-78.37 196.93,-206.42l0 -286.89zm419.91 414.94l0 -414.94 -76.44 0 0 489.81 272.73 0 0 -74.87 -196.29 0zm796.29 -35.69l43.41 110.56 81.62 0 -198.23 -489.81 -78.38 0 -200.18 489.81 79.69 0 43.4 -110.56 228.67 0zm-29.14 -73.47l-171.03 0 85.51 -217.62 85.52 217.62zm736.04 184.03l86.81 0 -101.71 -163.74c60.25,-25.19 93.93,-80.47 93.93,-158.84 0,-106.35 -66.72,-167.23 -182.68,-167.23l-183.98 0 0 489.81 76.44 0 0 -147.64 107.54 0c7.13,0 14.25,0 20.73,-0.7l82.92 148.34zm-211.19 -221.81l0 -193.83 107.54 0c69.96,0 110.12,30.79 110.12,95.16 0,66.48 -40.16,98.67 -110.12,98.67l-107.54 0z"/>
   </g>
   <g>
    <path class="fil1" d="M7357 0l2565.24 0c440,0 800,360 800,800l0 322.67 -274.3 0c-78.41,-302.65 -354.63,-527.86 -680.91,-527.86l-2254.82 0c-386.76,0 -703.19,316.43 -703.19,703.19l0 5111.12c0,386.76 316.43,703.19 703.19,703.19l2254.82 0c326.29,0 602.52,-225.21 680.92,-527.87l274.29 0 0 322.68c0,440 -360,800 -800,800l-2565.24 0c-440,0 -800,-360 -800,-800l0 -6107.12c0,-440 360,-800 800,-800zm549.69 7287.24l1465.86 0c51.75,0 94.08,42.33 94.08,94.08l0 0c0,51.75 -42.33,94.08 -94.08,94.08l-1465.86 0c-51.75,0 -94.08,-42.33 -94.08,-94.08l0 0c0,-51.75 42.33,-94.08 94.08,-94.08z"/>
    <path class="fil1" d="M12315.11 4365.3c-9.9,-28.82 -45,-51.24 -74.29,-51.24 -126.88,0 -253.73,0 -380.61,0 -29.28,0 -64.39,22.42 -74.3,51.24 -9.69,28.21 -16.93,53.38 -21.74,77.06l-254.23 -703.35c-41.93,-115.98 -152.99,-193.91 -276.3,-193.91l-1944.46 0c-123.33,0 -234.36,77.93 -276.31,193.93l-254.25 703.41c-4.82,-23.69 -12.06,-48.9 -21.76,-77.14 -9.9,-28.82 -45,-51.24 -74.29,-51.24 -126.86,0 -253.73,0 -380.6,0 -29.29,0 -64.39,22.42 -74.29,51.24 -38.55,112.22 -38.53,176.47 0.01,288.7 9.9,28.83 45,51.24 74.29,51.24 126.87,0 253.74,0 380.6,0 0.36,0 0.74,-0.09 1.11,-0.1l-5.74 15.9c-77.61,25.79 -133.64,98.84 -133.64,185.12l0 588.98 0 48.54 0 651.75c0,51.81 41.98,93.8 93.79,93.8l472.07 0c51.8,0 93.79,-41.99 93.79,-93.8l0 -456.6 2154.88 0 0 456.6c0,51.81 42,93.8 93.8,93.8l472.06 0c51.81,0 93.8,-41.99 93.8,-93.8l0 -651.75 0 -48.54 0 -588.98c0,-86.25 -56.01,-159.3 -133.59,-185.1l-5.75 -15.92c0.35,0.01 0.72,0.09 1.07,0.09 126.87,0 253.72,0 380.6,0 29.3,0 64.39,-22.41 74.29,-51.24 38.53,-112.22 38.51,-176.46 -0.01,-288.69zm-2990.01 -475.03l1872.36 0 296.66 820.73 -2465.68 0 296.66 -820.73zm52.22 1398.91l-394.92 0c-84.73,0 -153.41,-68.68 -153.41,-153.41 0,-84.72 68.67,-153.41 153.41,-153.41l394.92 0c84.72,0 153.41,68.68 153.41,153.41 0.01,84.73 -68.69,153.41 -153.41,153.41zm2163.06 0l-394.93 0c-84.72,0 -153.4,-68.68 -153.4,-153.41 0,-84.72 68.68,-153.41 153.4,-153.41l394.93 0c84.73,0 153.41,68.68 153.41,153.41 0,84.73 -68.68,153.41 -153.41,153.41z"/>
    <path class="fil1" d="M11092.7 2735.36c-38.19,0 -75.83,-14.61 -105.03,-43.82 -401.06,-400.49 -1052.63,-400.49 -1453.69,0 -57.85,57.86 -152.22,57.86 -210.07,0 -57.86,-57.85 -57.86,-152.22 0,-210.07 516.76,-516.77 1357.07,-516.77 1873.83,0 57.86,57.85 57.86,152.22 0,210.07 -29.21,29.21 -67.4,43.82 -105.04,43.82z"/>
    <path class="fil1" d="M10690.53 3136.97c-38.2,0 -75.83,-14.6 -105.04,-43.81 -86.5,-86.5 -202.22,-134.25 -324.67,-134.25 -122.45,0 -238.16,47.75 -324.66,134.25 -57.85,57.85 -152.22,57.85 -210.08,0 -57.85,-57.86 -57.85,-152.22 0,-210.08 142.68,-142.67 332.53,-221.31 534.74,-221.31 202.21,0 392.07,78.64 534.74,221.87 57.86,57.86 57.86,152.22 0,210.08 -28.64,28.65 -66.84,43.25 -105.03,43.25z"/>
    <path class="fil1" d="M11501.06 2327c-38.2,0 -75.83,-14.6 -105.04,-43.81 -626.3,-625.74 -1644.1,-625.74 -2269.83,0 -57.86,57.85 -152.22,57.85 -210.08,0 -57.85,-57.86 -57.85,-152.22 0,-210.08 359.49,-359.49 836.94,-557.21 1345.28,-557.21 508.33,0 985.78,197.72 1345.27,557.21 57.85,57.85 57.85,152.22 0,210.08 -29.77,29.21 -67.97,43.81 -105.6,43.81z"/>
   </g>
  </g>
 </g>
</svg>
