<?xml version="1.0" encoding="UTF-8"?>
<!DOCTYPE svg PUBLIC "-//W3C//DTD SVG 1.1//EN" "http://www.w3.org/Graphics/SVG/1.1/DTD/svg11.dtd">
<!-- Creator: CorelDRAW 2020 (64 Bit) -->
<svg xmlns="http://www.w3.org/2000/svg" xml:space="preserve" width="17.0415cm" height="12.5909cm" version="1.1" style="shape-rendering:geometricPrecision; text-rendering:geometricPrecision; image-rendering:optimizeQuality; fill-rule:evenodd; clip-rule:evenodd"
viewBox="0 0 17158.46 12677.29"
 xmlns:xlink="http://www.w3.org/1999/xlink"
 xmlns:xodm="http://www.corel.com/coreldraw/odm/2003">
 <defs>
  <style type="text/css">
   <![CDATA[
    .str0 {stroke:#EDEDED;stroke-width:261.03;stroke-miterlimit:22.9256}
    .fil8 {fill:none}
    .fil9 {fill:#B11E21}
    .fil5 {fill:#EDEDED}
    .fil0 {fill:#023A52;fill-rule:nonzero}
    .fil2 {fill:#1A1A1A;fill-rule:nonzero}
    .fil3 {fill:#333333;fill-rule:nonzero}
    .fil1 {fill:#B11E21;fill-rule:nonzero}
    .fil7 {fill:url(#id0)}
    .fil4 {fill:url(#id1)}
    .fil6 {fill:url(#id2)}
   ]]>
  </style>
  <linearGradient id="id0" gradientUnits="userSpaceOnUse" x1="8673.21" y1="3791.49" x2="7906.45" y2="2611.19">
   <stop offset="0" style="stop-opacity:1; stop-color:#023A52"/>
   <stop offset="1" style="stop-opacity:1; stop-color:#B11E21"/>
  </linearGradient>
  <linearGradient id="id1" gradientUnits="userSpaceOnUse" xlink:href="#id0" x1="9545.83" y1="6204.9" x2="5711.98" y2="303.45">
  </linearGradient>
  <linearGradient id="id2" gradientUnits="userSpaceOnUse" xlink:href="#id0" x1="9109.53" y1="4998.19" x2="6809.22" y2="1457.32">
  </linearGradient>
 </defs>
 <g id="Camada_x0020_1">
  <metadata id="CorelCorpID_0Corel-Layer"/>
  <g id="_1748422520016">
   <path class="fil0" d="M2046.06 9712.89l0 -2329.67 -639.97 0 0 927.21 -766.11 0 0 -927.21 -639.98 0 0 2329.67 639.98 0 0 -867.39 766.11 0 0 867.39 639.97 0zm1991.29 -1797.93l0 -531.73 -1762.99 0 0 2329.67 1793.76 0 0 -531.73 -1153.78 0 0 -368.89 1018.41 0 0 -531.73 -1018.41 0 0 -365.57 1123.01 0zm911.05 1219.67l0 -1751.41 -639.97 0 0 2329.67 1544.54 0 0 -578.26 -904.56 0zm1092.4 -1751.41l0 2329.67 639.98 0 0 -628.11 338.44 0c556.89,0 876.89,-319.04 876.89,-874.05 0,-528.41 -319.99,-827.51 -876.89,-827.51l-978.42 0zm639.98 531.73l307.68 0c190.75,0 301.52,113 301.52,315.72 0,209.37 -110.77,322.37 -301.52,322.37l-307.68 0 0 -638.09z"/>
   <path class="fil1" d="M8243.32 7383.22l0 2329.67 923.03 0c710.73,0 1181.49,-465.27 1181.49,-1166.5 0,-701.22 -461.52,-1163.17 -1159.94,-1163.17l-944.58 0zm639.97 545.02l292.29 0c307.68,0 519.97,249.26 519.97,624.8 0,372.21 -196.9,618.14 -489.2,618.14l-323.06 0 0 -1242.94zm3568.6 -13.29l0 -531.73 -1762.99 0 0 2329.67 1793.76 0 0 -531.73 -1153.79 0 0 -368.89 1018.42 0 0 -531.73 -1018.42 0 0 -365.57 1123.02 0zm1325.63 -561.65c-538.43,0 -892.26,285.81 -892.26,734.47 0,820.86 1126.1,598.2 1126.1,950.48 0,106.34 -86.15,156.19 -221.53,156.19 -221.53,0 -581.52,-152.87 -803.04,-355.59l-239.99 525.09c270.76,229.3 670.73,368.88 1036.87,368.88 483.05,0 889.2,-235.96 889.2,-731.13 0,-840.81 -1126.1,-638.08 -1126.1,-980.39 0,-86.4 70.76,-126.28 178.45,-126.28 181.53,0 495.37,122.96 716.89,259.22l236.92 -531.73c-233.84,-162.84 -572.28,-269.19 -901.5,-269.19zm2614.81 2359.58l766.12 0 -830.74 -1382.51 781.51 -947.15 -738.42 0 -723.05 897.3 0 -897.3 -639.97 0 0 2329.67 639.97 0 0 -558.32 243.07 -292.45 501.52 850.78z"/>
  </g>
  <path class="fil2" d="M6556.61 10160.2c-323.08,0 -535.38,171.49 -535.38,440.69 0,492.54 675.68,358.94 675.68,570.31 0,63.81 -51.69,93.72 -132.93,93.72 -132.92,0 -348.92,-91.73 -481.84,-213.36l-143.99 315.07c162.46,137.59 402.45,221.34 622.15,221.34 289.85,0 533.53,-141.57 533.53,-438.69 0,-504.51 -675.68,-382.87 -675.68,-588.26 0,-51.84 42.46,-75.78 107.08,-75.78 108.92,0 297.23,73.78 430.15,155.54l142.15 -319.05c-140.31,-97.71 -343.38,-161.52 -540.92,-161.52zm1389.77 5.98c-406.16,0 -705.23,299.12 -705.23,709.9 0,412.77 299.07,717.86 705.23,717.86 406.14,0 705.22,-307.08 705.22,-717.86 0,-408.79 -299.08,-709.9 -705.22,-709.9zm5.54 346.97c169.84,0 306.45,153.55 306.45,364.92 0,211.37 -136.61,368.9 -306.45,368.9 -169.86,0 -317.54,-157.53 -317.54,-368.9 0,-211.37 145.84,-364.92 317.54,-364.92zm1888.4 -15.96l0 -319.04 -1004.29 0 0 1397.85 383.99 0 0 -480.57 576 0 0 -319.05 -576 0 0 -279.17 620.31 0zm1379.97 11.97l0 -331.02 -1137.22 0 0 331.02 374.76 0 0 1066.83 385.84 0 0 -1066.83 376.62 0z"/>
  <path class="fil3" d="M869.27 12431.38l0 137.4c-32.61,21.13 -71.1,33.82 -105.03,33.82 -93.28,0 -166.99,-76.8 -166.99,-175.45 0,-97.94 73.06,-174.73 166.34,-174.73 47.62,0 96.54,21.13 131.77,56.36l43.71 -61.3c-45.02,-42.28 -110.25,-69.05 -175.48,-69.05 -138.29,0 -244.62,107.8 -244.62,248.71 0,140.92 105.03,250.13 240.06,250.13 62.62,0 131.1,-26.07 177.43,-64.12l0 -181.79 -67.2 0zm737.91 -176.15l0 -74.68 -326.16 0 0 493.21 333.99 0 0 -74.69 -257 0 0 -135.99 223.08 0 0 -74.68 -223.08 0 0 -133.18 249.18 0zm487.41 -78.2c-99.16,0 -166.33,52.84 -166.33,137.4 0,175.44 246.57,114.14 246.57,224.06 0,38.05 -31.96,59.89 -85.46,59.89 -48.91,0 -107.62,-25.36 -154.59,-71.87l-33.27 71.87c46.97,46.51 114.81,78.21 186.56,78.21 100.45,0 172.21,-54.25 172.21,-142.33 0.65,-177.56 -245.92,-119.78 -245.92,-227.58 0,-33.12 29.35,-51.44 74.36,-51.44 34.57,0 84.15,13.39 133.72,45.8l31.97 -73.28c-42.41,-30.3 -100.46,-50.73 -159.82,-50.73zm803.14 78.2l0 -74.68 -365.95 0 0 74.68 144.16 0 0 418.53 76.97 0 0 -418.53 144.82 0zm449.57 -176.14c22.84,0 39.15,38.75 78.28,38.75 39.15,0 59.36,-31.01 59.36,-92.31l-47.62 0c0,22.55 -8.48,34.53 -24.79,34.53 -22.17,0 -41.74,-38.75 -77.62,-38.75 -39.15,0 -60.01,31.01 -60.01,92.31l48.26 0c0,-22.55 8.49,-34.53 24.13,-34.53zm146.78 483.34l43.7 111.33 82.2 0 -199.61 -493.21 -78.94 0 -201.56 493.21 80.24 0 43.71 -111.33 230.27 0zm-29.35 -73.97l-172.22 0 86.11 -219.13 86.12 219.13zm655.71 -310.02c-136.33,0 -242.01,107.1 -242.01,248.71 0,140.92 105.68,250.13 242.01,250.13 136.34,0 242.01,-109.21 242.01,-250.13 0,-140.91 -105.67,-248.71 -242.01,-248.71zm0.65 74.69c89.37,0 162.43,76.09 162.43,174.03 0,97.94 -73.06,175.45 -162.43,175.45 -89.37,0 -164.38,-77.51 -164.38,-175.45 0,-97.94 74.36,-174.03 164.38,-174.03zm996.75 -72.57l0 493.21 76.97 0 0 -148.67 105.03 0c114.81,0 180.68,-64.82 180.68,-176.14 0,-107.1 -65.87,-168.4 -180.68,-168.4l-182 0zm76.97 74.68l101.76 0c70.45,0 110.24,31.01 110.24,95.83 0,66.94 -39.79,99.35 -110.24,99.35l-101.76 0 0 -195.18zm892.51 307.2l43.7 111.33 82.2 0 -199.61 -493.21 -78.94 0 -201.56 493.21 80.23 0 43.72 -111.33 230.27 0zm-29.36 -73.97l-172.21 0 86.11 -219.13 86.11 219.13zm741.17 185.3l87.42 0 -102.42 -164.87c60.66,-25.36 94.58,-81.03 94.58,-159.94 0,-107.1 -67.19,-168.4 -183.95,-168.4l-185.25 0 0 493.21 76.97 0 0 -148.67 108.28 0c7.18,0 14.36,0 20.87,-0.7l83.5 149.38zm-212.65 -223.35l0 -195.18 108.28 0c70.45,0 110.9,31.01 110.9,95.83 0,66.94 -40.45,99.35 -110.9,99.35l-108.28 0zm925.12 112.02l43.7 111.33 82.2 0 -199.62 -493.21 -78.93 0 -201.56 493.21 80.23 0 43.71 -111.33 230.28 0zm-29.36 -73.97l-172.21 0 86.11 -219.13 86.11 219.13zm1093.29 -310.02c-136.32,0 -242,107.1 -242,248.71 0,140.92 105.68,250.13 242,250.13 136.34,0 242.02,-109.21 242.02,-250.13 0,-140.91 -105.68,-248.71 -242.02,-248.71zm0.65 74.69c89.38,0 162.43,76.09 162.43,174.03 0,97.94 -73.05,175.45 -162.43,175.45 -89.36,0 -164.37,-77.51 -164.37,-175.45 0,-97.94 74.36,-174.03 164.37,-174.03zm1146.79 -76.1c-99.16,0 -166.33,52.84 -166.33,137.4 0,175.44 246.57,114.14 246.57,224.06 0,38.05 -31.97,59.89 -85.46,59.89 -48.91,0 -107.62,-25.36 -154.59,-71.87l-33.27 71.87c46.97,46.51 114.81,78.21 186.56,78.21 100.45,0 172.21,-54.25 172.21,-142.33 0.65,-177.56 -245.93,-119.78 -245.93,-227.58 0,-33.12 29.36,-51.44 74.36,-51.44 34.58,0 84.16,13.39 133.73,45.8l31.97 -73.28c-42.41,-30.3 -100.46,-50.73 -159.82,-50.73zm817.49 78.2l0 -74.68 -326.16 0 0 493.21 333.99 0 0 -74.69 -257.01 0 0 -135.99 223.09 0 0 -74.68 -223.09 0 0 -133.18 249.19 0zm725.51 -74.68l-76.98 0 0 288.88c0,83.85 -46.31,133.17 -120.67,133.17 -75.02,0 -122.64,-50.02 -122.64,-133.17l0 -288.88 -76.97 0 0 288.88c0,128.94 75.67,207.86 198.96,207.86 123.29,0 198.31,-78.92 198.31,-207.86l0 -288.88zm1179.4 493.21l0 -493.21 -75.67 0 0 354.41 -244.62 -354.41 -75.68 0 0 493.21 76.97 0 0 -353.7 243.32 353.7 75.67 0zm682.46 -418.53l0 -74.68 -326.16 0 0 493.21 333.98 0 0 -74.69 -257 0 0 -135.99 223.08 0 0 -74.68 -223.08 0 0 -133.18 249.19 0zm649.84 176.15l0 137.4c-32.62,21.13 -71.11,33.82 -105.04,33.82 -93.28,0 -166.98,-76.8 -166.98,-175.45 0,-97.94 73.05,-174.73 166.33,-174.73 47.62,0 96.54,21.13 131.77,56.36l43.71 -61.3c-45.02,-42.28 -110.25,-69.05 -175.48,-69.05 -138.29,0 -244.62,107.8 -244.62,248.71 0,140.92 105.03,250.13 240.06,250.13 62.62,0 131.1,-26.07 177.43,-64.12l0 -181.79 -67.19 0zm715.06 -373.43l-76.96 -35.23 -69.15 104.28 66.54 0 79.57 -69.05zm-99.16 120.49c-136.33,0 -242.01,107.1 -242.01,248.71 0,140.92 105.68,250.13 242.01,250.13 136.34,0 242.02,-109.21 242.02,-250.13 0,-140.91 -105.68,-248.71 -242.02,-248.71zm0.65 74.69c89.38,0 162.43,76.09 162.43,174.03 0,97.94 -73.05,175.45 -162.43,175.45 -89.37,0 -164.38,-77.51 -164.38,-175.45 0,-97.94 74.37,-174.03 164.38,-174.03zm761.4 -74.69c-135.03,0 -240.06,107.8 -240.06,248.01 0,141.63 103.72,250.84 237.45,250.84 64.58,0 130.45,-31.71 176.77,-81.03l-45.67 -54.95c-34.57,35.93 -81.54,58.48 -127.19,58.48 -91.33,0 -163.08,-76.8 -163.08,-174.04 0,-97.23 71.75,-173.32 163.08,-173.32 46.31,0 93.92,23.95 127.19,62.71l45.02 -60.6c-44.36,-47.2 -108.94,-76.09 -173.51,-76.09zm565.04 495.33l0 -493.21 -76.98 0 0 493.21 76.98 0zm559.81 -495.33c-136.33,0 -242.01,107.1 -242.01,248.71 0,140.92 105.68,250.13 242.01,250.13 136.34,0 242.02,-109.21 242.02,-250.13 0,-140.91 -105.68,-248.71 -242.02,-248.71zm0.65 74.69c89.37,0 162.43,76.09 162.43,174.03 0,97.94 -73.06,175.45 -162.43,175.45 -89.37,0 -164.38,-77.51 -164.38,-175.45 0,-97.94 74.36,-174.03 164.38,-174.03z"/>
  <g id="_1748422483824">
   <path class="fil4" d="M8455.07 166.39c1668.85,0 3021.73,1352.88 3021.73,3021.73 0,1668.86 -1352.88,3021.74 -3021.73,3021.74 -1668.86,0 -3021.74,-1352.88 -3021.74,-3021.74 0,-1668.85 1352.88,-3021.73 3021.74,-3021.73z"/>
   <path class="fil5" d="M8455.07 770.74c1335.09,0 2417.38,1082.3 2417.38,2417.38 0,1335.09 -1082.3,2417.39 -2417.38,2417.39 -1335.09,0 -2417.39,-1082.31 -2417.39,-2417.39 0,-1335.09 1082.31,-2417.38 2417.39,-2417.38z"/>
   <path class="fil6" d="M8455.07 1375.08c1001.31,0 1813.05,811.73 1813.05,1813.05 0,1001.31 -811.73,1813.05 -1813.05,1813.05 -1001.31,0 -1813.05,-811.73 -1813.05,-1813.05 0,-1001.31 811.73,-1813.05 1813.05,-1813.05z"/>
   <path class="fil5" d="M8455.07 1979.43c667.54,0 1208.7,541.16 1208.7,1208.7 0,667.55 -541.16,1208.7 -1208.7,1208.7 -667.55,0 -1208.7,-541.15 -1208.7,-1208.7 0,-667.54 541.15,-1208.7 1208.7,-1208.7z"/>
   <path class="fil7" d="M8455.07 2583.78c333.76,0 604.35,270.58 604.35,604.35 0,333.77 -270.58,604.35 -604.35,604.35 -333.77,0 -604.35,-270.57 -604.35,-604.35 0,-333.76 270.57,-604.35 604.35,-604.35z"/>
   <g>
    <path class="fil8 str0" d="M8403.48 3168.15c-58.82,34.24 -56.18,119.79 4.77,150.27 26.21,12.59 55.17,11.86 80.5,-2.57l2936.41 -1695.34 349.47 93.64 295.41 -170.55 -465.97 -124.85 124.85 -465.96 -295.4 170.55 -93.64 349.46 -2936.41 1695.34zm3916.27 -2556.46l-295.4 170.55 -124.86 465.96 465.97 124.85 295.4 -170.55 -465.96 -124.85 124.85 -465.96zm590.82 -341.11l-295.4 170.56 -124.86 465.96 465.97 124.85 295.4 -170.55 -465.96 -124.85 124.85 -465.97z"/>
    <path id="1" class="fil9" d="M8403.48 3168.15c-58.82,34.24 -56.18,119.79 4.77,150.27 26.21,12.59 55.17,11.86 80.5,-2.57l2936.41 -1695.34 349.47 93.64 295.41 -170.55 -465.97 -124.85 124.85 -465.96 -295.4 170.55 -93.64 349.46 -2936.41 1695.34zm3916.27 -2556.46l-295.4 170.55 -124.86 465.96 465.97 124.85 295.4 -170.55 -465.96 -124.85 124.85 -465.96zm590.82 -341.11l-295.4 170.56 -124.86 465.96 465.97 124.85 295.4 -170.55 -465.96 -124.85 124.85 -465.97z"/>
   </g>
  </g>
 </g>
</svg>
